<?xml version="1.0" standalone="no"?>
<!DOCTYPE svg PUBLIC "-//W3C//DTD SVG 20010904//EN"
 "http://www.w3.org/TR/2001/REC-SVG-20010904/DTD/svg10.dtd">
<svg version="1.0" xmlns="http://www.w3.org/2000/svg"
 width="108.000000pt" height="66.000000pt" viewBox="0 0 108.000000 66.000000"
 preserveAspectRatio="xMidYMid meet">

<g transform="translate(0.000000,66.000000) scale(0.100000,-0.100000)"
fill="#959ea6" stroke="none">
<path d="M7 653 c-4 -3 -7 -152 -7 -330 l0 -323 530 0 530 0 -2 328 -3 327
-521 3 c-286 1 -524 -1 -527 -5z m1023 -323 l0 -300 -500 0 -500 0 0 300 0
300 500 0 500 0 0 -300z"/>
<path d="M158 512 l-68 -69 0 -112 0 -113 67 -69 66 -69 305 0 304 0 64 62 64
61 0 123 0 122 -67 66 -68 66 -299 0 -299 0 -69 -68z m719 -24 l63 -62 0 -101
0 -101 -58 -57 -58 -57 -295 0 -295 0 -57 58 -57 58 0 104 0 104 60 58 59 58
288 0 287 0 63 -62z"/>
<path d="M475 456 c-102 -44 -122 -172 -39 -245 60 -53 128 -53 189 0 64 56
67 154 8 211 -49 47 -102 58 -158 34z m123 -42 c32 -21 55 -79 47 -120 -8 -46
-65 -94 -111 -94 -47 0 -90 26 -109 66 -20 43 -19 73 5 112 36 59 109 75 168
36z"/>
<path d="M502 384 c-27 -19 -28 -50 -2 -64 11 -6 20 -19 20 -29 0 -14 -5 -18
-20 -14 -11 3 -20 0 -20 -6 0 -6 4 -11 9 -11 5 0 16 -7 25 -15 14 -14 18 -13
41 7 30 26 32 53 5 68 -23 12 -28 53 -6 44 8 -3 17 -1 21 5 3 6 -5 15 -20 21
-32 12 -26 13 -53 -6z m15 -36 c-3 -8 -6 -5 -6 6 -1 11 2 17 5 13 3 -3 4 -12
1 -19z m43 -57 c0 -6 -4 -13 -10 -16 -5 -3 -10 1 -10 9 0 9 5 16 10 16 6 0 10
-4 10 -9z"/>
<path d="M251 389 c-49 -19 -66 -73 -36 -116 49 -69 158 -6 129 75 -11 32 -60
53 -93 41z m57 -41 c36 -36 -11 -93 -57 -69 -39 21 -21 81 24 81 12 0 26 -5
33 -12z"/>
<path d="M760 387 c-13 -7 -31 -24 -39 -38 -19 -35 -1 -83 39 -99 84 -35 141
93 60 135 -35 18 -29 18 -60 2z m58 -39 c17 -17 15 -53 -3 -68 -38 -31 -96 27
-65 65 15 18 51 20 68 3z"/>
</g>
</svg>
