<?xml version="1.0" standalone="no"?>
<!DOCTYPE svg PUBLIC "-//W3C//DTD SVG 20010904//EN"
 "http://www.w3.org/TR/2001/REC-SVG-20010904/DTD/svg10.dtd">
<svg version="1.0" xmlns="http://www.w3.org/2000/svg"
 width="577.000000pt" height="433.000000pt" viewBox="0 0 577.000000 433.000000"
 preserveAspectRatio="xMidYMid meet">

<g transform="translate(0.000000,433.000000) scale(0.100000,-0.100000)"
fill="#1A1F71" stroke="none">
<path d="M3540 3071 c-93 -20 -224 -68 -282 -103 -76 -47 -167 -138 -204 -204
-58 -105 -76 -174 -72 -280 3 -79 8 -100 38 -160 60 -124 160 -206 400 -330
60 -31 114 -68 148 -101 48 -48 52 -55 52 -99 0 -187 -321 -243 -644 -114 -54
22 -100 40 -102 40 -6 0 -22 -68 -53 -230 -17 -85 -31 -155 -31 -156 0 -3 88
-33 142 -48 162 -46 421 -59 583 -31 116 20 280 83 347 132 167 124 238 258
241 453 4 226 -106 361 -422 520 -93 46 -181 107 -205 142 -44 62 -1 145 96
189 47 21 68 24 173 23 126 0 195 -13 306 -58 l59 -24 5 22 c3 11 23 96 44
188 l37 168 -75 24 c-178 58 -410 73 -581 37z"/>
<path d="M20 3040 c0 -11 -1 -23 -2 -27 -1 -5 7 -9 18 -11 112 -18 422 -130
470 -170 38 -32 52 -66 93 -218 36 -132 68 -259 191 -739 35 -136 150 -573
156 -592 2 -10 61 -13 247 -13 l244 0 61 143 c57 134 137 323 232 552 23 55
51 119 61 142 10 23 19 44 19 48 0 3 32 81 71 173 39 92 99 235 134 317 54
130 112 268 161 383 l14 32 -243 0 -243 0 -61 -152 c-34 -84 -96 -241 -138
-348 -42 -107 -103 -260 -134 -340 -32 -80 -77 -196 -102 -257 -24 -62 -47
-113 -51 -113 -3 0 -9 24 -13 53 -4 28 -38 216 -76 417 -38 201 -79 414 -90
475 -12 60 -29 126 -39 146 -25 48 -81 95 -127 108 -24 7 -192 11 -445 11
-401 0 -408 0 -408 -20z"/>
<path d="M2386 3043 c-8 -27 -45 -195 -66 -302 -10 -53 -41 -202 -69 -331
-125 -570 -173 -795 -201 -935 -17 -82 -33 -162 -37 -177 l-5 -28 229 0 230 0
51 233 c28 127 54 248 57 267 4 19 29 136 56 260 28 124 57 259 64 300 7 41
36 177 64 301 28 124 58 263 66 310 9 46 18 92 21 102 5 16 -10 17 -225 17
-210 0 -230 -1 -235 -17z"/>
<path d="M4906 3045 c-83 -30 -99 -56 -249 -415 -156 -372 -298 -710 -391
-932 -36 -86 -66 -159 -66 -162 0 -3 -25 -61 -55 -130 -30 -68 -55 -127 -55
-130 0 -4 108 -5 241 -4 l241 3 47 125 48 125 299 3 300 2 13 -62 c7 -35 19
-93 27 -130 l16 -68 209 0 c160 0 209 3 209 13 0 17 -32 178 -100 502 -129
614 -179 855 -200 955 -11 58 -31 152 -43 210 l-23 105 -214 2 c-163 2 -224
-1 -254 -12z m179 -650 c21 -111 78 -378 100 -472 l5 -23 -193 0 -194 0 19 58
c10 31 43 122 72 202 30 80 76 205 102 278 37 102 50 128 56 112 4 -11 19 -81
33 -155z"/>
</g>
</svg>
